<svg width="137" height="15" viewBox="0 0 137 15" fill="none" xmlns="http://www.w3.org/2000/svg">
<path d="M5.34131 2.62793C4.67725 2.62793 4.34521 2.88249 4.34521 3.3916C4.34521 3.48568 4.36182 3.58529 4.39502 3.69043C4.43376 3.79557 4.46696 3.90625 4.49463 4.02246L7.67383 11.6758C7.7015 11.7311 7.74577 11.7588 7.80664 11.7588C7.86751 11.7588 7.91732 11.7284 7.95605 11.6675L9.79053 7.35107L8.17188 3.44141C8.07227 3.19238 7.65723 2.95443 6.92676 2.72754C6.71094 2.66113 6.56982 2.62793 6.50342 2.62793C6.44255 2.62793 6.41211 2.60579 6.41211 2.56152V2.3623C6.41211 2.31803 6.43424 2.2959 6.47852 2.2959H14.082C14.1263 2.2959 14.1484 2.31803 14.1484 2.3623V2.56152C14.1484 2.60579 14.1263 2.62793 14.082 2.62793H13.7749C13.2437 2.62793 12.8397 2.88802 12.563 3.4082C12.4689 3.58529 12.3721 3.79281 12.2725 4.03076L11.1934 6.5625L13.3184 11.6758C13.346 11.7311 13.3903 11.7588 13.4512 11.7588C13.512 11.7588 13.5618 11.7284 13.6006 11.6675L17.1118 3.4082C17.1782 3.25326 17.2114 3.11491 17.2114 2.99316C17.2114 2.74967 16.8932 2.62793 16.2568 2.62793H15.7422C15.6979 2.62793 15.6758 2.60579 15.6758 2.56152V2.3623C15.6758 2.31803 15.6979 2.2959 15.7422 2.2959H19.436C19.4803 2.2959 19.5024 2.31803 19.5024 2.3623V2.56152C19.5024 2.60579 19.4803 2.62793 19.436 2.62793H19.0459C18.8024 2.62793 18.617 2.7137 18.4897 2.88525C18.368 3.05127 18.1937 3.39437 17.9668 3.91455L13.7002 13.9336C13.6393 14.0664 13.5757 14.1466 13.5093 14.1743C13.4429 14.2075 13.346 14.2241 13.2188 14.2241H12.8286C12.6958 14.2241 12.6073 14.1632 12.563 14.0415L10.3218 8.61279L8.05566 13.9336C7.99479 14.0664 7.93115 14.1466 7.86475 14.1743C7.79834 14.2075 7.7015 14.2241 7.57422 14.2241H7.18408C7.05127 14.2241 6.96549 14.1605 6.92676 14.0332L2.52734 3.44141C2.4388 3.22559 2.16488 3.03743 1.70557 2.87695C1.24626 2.71094 0.961263 2.62793 0.850586 2.62793C0.745443 2.62793 0.692871 2.60579 0.692871 2.56152V2.3623C0.692871 2.31803 0.715007 2.2959 0.759277 2.2959H5.49072C5.53499 2.2959 5.55713 2.31803 5.55713 2.3623V2.56152C5.55713 2.60579 5.53499 2.62793 5.49072 2.62793H5.34131ZM11.5669 3.01807C11.5669 2.78564 11.3289 2.65837 10.853 2.63623C10.3716 2.6639 10.0949 2.83268 10.0229 3.14258C10.0008 3.22005 9.98975 3.30583 9.98975 3.3999C9.98975 3.48844 10.0063 3.58529 10.0396 3.69043C10.0783 3.79557 10.1115 3.90625 10.1392 4.02246L10.6621 5.29248L11.4673 3.4082C11.5337 3.25326 11.5669 3.12321 11.5669 3.01807ZM20.1582 10.2729C20.1582 9.18278 20.5428 8.24756 21.312 7.46729C22.0868 6.68148 23.0137 6.28857 24.0928 6.28857C25.1719 6.28857 26.1099 6.67041 26.9067 7.43408C27.7036 8.19222 28.1021 9.13021 28.1021 10.248C28.1021 11.3659 27.723 12.3094 26.9648 13.0786C26.2122 13.8423 25.266 14.2241 24.126 14.2241C22.986 14.2241 22.0397 13.8368 21.2871 13.062C20.5345 12.2873 20.1582 11.3576 20.1582 10.2729ZM22.2251 12.4062C22.7674 13.3193 23.5062 13.7759 24.4414 13.7759C25.1663 13.7759 25.7197 13.4854 26.1016 12.9043C26.4889 12.3232 26.6826 11.6094 26.6826 10.7627C26.6826 9.91602 26.4115 9.0472 25.8691 8.15625C25.3324 7.2653 24.6074 6.81982 23.6943 6.81982C23.0247 6.81982 22.4963 7.11035 22.1089 7.69141C21.7271 8.26693 21.5361 9.00016 21.5361 9.89111C21.5361 10.7765 21.7658 11.6149 22.2251 12.4062ZM29.3555 10.2729C29.3555 9.18278 29.7401 8.24756 30.5093 7.46729C31.284 6.68148 32.2109 6.28857 33.29 6.28857C34.3691 6.28857 35.3071 6.67041 36.104 7.43408C36.9009 8.19222 37.2993 9.13021 37.2993 10.248C37.2993 11.3659 36.9202 12.3094 36.1621 13.0786C35.4095 13.8423 34.4632 14.2241 33.3232 14.2241C32.1833 14.2241 31.237 13.8368 30.4844 13.062C29.7318 12.2873 29.3555 11.3576 29.3555 10.2729ZM31.4224 12.4062C31.9647 13.3193 32.7035 13.7759 33.6387 13.7759C34.3636 13.7759 34.917 13.4854 35.2988 12.9043C35.6862 12.3232 35.8799 11.6094 35.8799 10.7627C35.8799 9.91602 35.6087 9.0472 35.0664 8.15625C34.5296 7.2653 33.8047 6.81982 32.8916 6.81982C32.222 6.81982 31.6935 7.11035 31.3062 7.69141C30.9243 8.26693 30.7334 9.00016 30.7334 9.89111C30.7334 10.7765 30.9631 11.6149 31.4224 12.4062ZM43.6328 6.65381C43.8763 6.73682 44.0257 6.77832 44.0811 6.77832C44.1364 6.77832 44.1696 6.77832 44.1807 6.77832C44.1973 6.77279 44.2166 6.73682 44.2388 6.67041V2.38721C44.2388 2.15479 44.1115 1.9943 43.8569 1.90576C43.7463 1.86702 43.6273 1.83659 43.5 1.81445C43.3727 1.78678 43.2703 1.76188 43.1929 1.73975C43.1209 1.71761 43.0739 1.69824 43.0518 1.68164C43.0352 1.65951 43.0269 1.618 43.0269 1.55713C43.0269 1.49072 43.0684 1.43538 43.1514 1.39111L45.2681 0.39502C45.3345 0.361816 45.376 0.345215 45.3926 0.345215C45.4867 0.345215 45.5337 0.411621 45.5337 0.544434V12.3647C45.5614 12.6082 45.6305 12.7826 45.7412 12.8877C45.8519 12.9928 46.0317 13.0454 46.2808 13.0454L46.7622 13.0122C46.7954 13.0122 46.812 13.0454 46.812 13.1118C46.812 13.1727 46.7705 13.2225 46.6875 13.2612L44.4795 14.1743C44.4131 14.2075 44.355 14.2241 44.3052 14.2241C44.2609 14.2241 44.2388 14.1549 44.2388 14.0166V13.2612C44.2388 13.2059 44.2249 13.1782 44.1973 13.1782C44.1585 13.1782 43.9289 13.3027 43.5083 13.5518C42.2189 14.3154 41.1315 14.4289 40.2461 13.8921C39.5378 13.4604 39.0591 12.777 38.8101 11.8418C38.6938 11.4046 38.6357 10.9425 38.6357 10.4556C38.6357 9.96305 38.7354 9.47607 38.9346 8.99463C39.1393 8.50765 39.4188 8.08154 39.7729 7.71631C40.5532 6.91943 41.494 6.521 42.5952 6.521C43.0435 6.521 43.3893 6.56527 43.6328 6.65381ZM39.8892 10.2148C39.8892 11.0505 40.1216 11.7837 40.5864 12.4146C41.0513 13.0399 41.6987 13.3525 42.5288 13.3525C42.894 13.3525 43.2703 13.264 43.6577 13.0869C44.0451 12.9043 44.2388 12.766 44.2388 12.6719V8.38867C44.2388 8.28353 44.1668 8.15902 44.0229 8.01514C43.5802 7.40641 42.9909 7.10205 42.2549 7.10205C41.5244 7.10205 40.9461 7.41195 40.52 8.03174C40.0994 8.646 39.8892 9.3737 39.8892 10.2148ZM48.8955 9.62549C48.8014 9.62549 48.7544 9.82747 48.7544 10.2314C48.7544 11.0892 49.009 11.8086 49.5181 12.3896C50.0272 12.9707 50.658 13.2612 51.4106 13.2612C52.1688 13.2612 52.8965 12.9347 53.5938 12.2817C53.6048 12.2707 53.6187 12.2651 53.6353 12.2651H53.6768C53.71 12.2651 53.7404 12.2928 53.7681 12.3481C53.8013 12.3979 53.8317 12.4312 53.8594 12.4478C53.2174 13.228 52.4621 13.7676 51.5933 14.0664C51.2944 14.1715 50.9569 14.2241 50.5806 14.2241C50.2043 14.2241 49.8224 14.1217 49.4351 13.917C49.0477 13.7067 48.7157 13.4328 48.439 13.0952C47.8524 12.3924 47.5591 11.5181 47.5591 10.4722C47.5591 9.42074 47.8773 8.46338 48.5137 7.6001C49.1556 6.73682 50.0355 6.30518 51.1533 6.30518C51.9557 6.30518 52.6115 6.66488 53.1206 7.38428C53.6297 8.09814 53.8843 8.72624 53.8843 9.26855C53.8843 9.50651 53.8262 9.62549 53.71 9.62549H48.8955ZM48.9868 8.82861C48.9868 8.93376 49.0366 8.98633 49.1362 8.98633H52.2656C52.4095 8.98633 52.4814 8.90055 52.4814 8.729C52.4814 8.33057 52.3016 7.92383 51.9419 7.50879C51.5877 7.08822 51.1976 6.87793 50.7715 6.87793C50.3564 6.87793 49.9774 7.06608 49.6343 7.44238C49.2967 7.81868 49.0809 8.24756 48.9868 8.729V8.82861ZM61.3716 11.3853L61.355 9.63379C61.355 8.91992 61.2941 8.41911 61.1724 8.13135C61.0506 7.84359 60.8957 7.62777 60.7075 7.48389C60.5194 7.33447 60.2648 7.25977 59.9438 7.25977C59.6284 7.25977 58.9561 7.50879 57.9268 8.00684C57.7884 8.08984 57.7165 8.16732 57.7109 8.23926V12.7051C57.7109 13.264 58.0098 13.585 58.6074 13.668C58.8675 13.7067 58.9976 13.7703 58.9976 13.8589C58.9976 13.9419 58.9699 13.9889 58.9146 14H55.2124C55.1571 13.9889 55.1294 13.9502 55.1294 13.8838C55.1294 13.7786 55.2594 13.7067 55.5195 13.668C56.1172 13.585 56.416 13.264 56.416 12.7051V7.94043C56.416 7.70801 56.2887 7.54753 56.0342 7.45898C55.9235 7.42025 55.8045 7.38981 55.6772 7.36768C55.55 7.34001 55.4476 7.3151 55.3701 7.29297C55.2982 7.27083 55.2511 7.25146 55.229 7.23486C55.2124 7.21273 55.2041 7.17122 55.2041 7.11035C55.2041 7.04395 55.2456 6.98861 55.3286 6.94434L57.4453 5.94824C57.5117 5.91504 57.5532 5.89844 57.5698 5.89844C57.6639 5.89844 57.7109 5.96484 57.7109 6.09766V7.39258C57.7275 7.44792 57.7497 7.47559 57.7773 7.47559C57.8105 7.47559 57.9295 7.42578 58.1343 7.32617C58.6102 7.08822 59.0889 6.85856 59.5703 6.63721C60.0518 6.41585 60.4502 6.30518 60.7656 6.30518C62.0439 6.30518 62.6831 7.47005 62.6831 9.7998L62.6084 12.2236V12.7051C62.6084 13.1367 62.8242 13.4189 63.2559 13.5518C63.4385 13.6126 63.6128 13.6569 63.7788 13.6846C63.9504 13.7067 64.061 13.7288 64.1108 13.751C64.1662 13.7731 64.1938 13.8174 64.1938 13.8838C64.1938 13.9502 64.1662 13.9889 64.1108 14H60.1099C60.0545 13.9889 60.0269 13.9502 60.0269 13.8838C60.0269 13.7786 60.1569 13.7067 60.417 13.668C61.0091 13.585 61.3052 13.2419 61.3052 12.6387C61.3494 12.362 61.3716 11.9442 61.3716 11.3853ZM76.0474 7.28467C76.7889 7.28467 77.1597 6.9222 77.1597 6.19727C77.1597 6.15299 77.1818 6.13086 77.2261 6.13086H77.4253C77.4696 6.13086 77.4917 6.15299 77.4917 6.19727V9.28516C77.4917 9.32943 77.4696 9.35156 77.4253 9.35156H77.2261C77.1818 9.35156 77.1597 9.32943 77.1597 9.28516C77.1597 8.77604 77.0158 8.42464 76.728 8.23096C76.5731 8.12581 76.3517 8.07324 76.064 8.07324H72.7935C72.6606 8.07324 72.5942 8.14795 72.5942 8.29736V12.564C72.5942 12.9403 72.8184 13.2197 73.2666 13.4023C73.7204 13.5794 74.0054 13.668 74.1216 13.668C74.2433 13.668 74.3042 13.6901 74.3042 13.7344V13.9336C74.3042 13.9779 74.2821 14 74.2378 14H69.7056C69.6613 14 69.6392 13.9779 69.6392 13.9336V13.7344C69.6392 13.6901 69.6862 13.668 69.7803 13.668C69.8743 13.668 70.021 13.6237 70.2202 13.5352C70.4194 13.4466 70.5938 13.3166 70.7432 13.145C70.8981 12.9679 70.9756 12.7549 70.9756 12.5059V3.54102C70.9756 3.18132 70.7847 2.92399 70.4028 2.76904C70.1815 2.67497 69.9629 2.62793 69.7471 2.62793H69.7139C69.6696 2.62793 69.6475 2.60579 69.6475 2.56152V2.3623C69.6475 2.31803 69.6696 2.2959 69.7139 2.2959H77.5415C77.6079 2.30697 77.6577 2.32357 77.6909 2.3457C77.7241 2.3623 77.7407 2.40934 77.7407 2.48682V4.49561C77.7407 4.56201 77.7297 4.60352 77.7075 4.62012C77.6909 4.63672 77.6577 4.64502 77.6079 4.64502H77.5083C77.4972 4.63949 77.4585 4.49007 77.3921 4.19678C77.3312 3.89795 77.2344 3.66829 77.1016 3.50781C76.8747 3.26432 76.6174 3.12874 76.3296 3.10107C76.2134 3.09001 76.0723 3.08447 75.9062 3.08447H72.7603C72.6496 3.08447 72.5942 3.13981 72.5942 3.25049V7.09375C72.5942 7.22103 72.6606 7.28467 72.7935 7.28467H76.0474ZM84.8794 13.2695C84.8517 13.1755 84.8158 13.145 84.7715 13.1782C84.7272 13.2059 84.5474 13.3 84.2319 13.4604C83.1971 13.9751 82.3338 14.2324 81.6421 14.2324C80.9504 14.2324 80.4523 14.0111 80.1479 13.5684C80.0373 13.4023 79.9819 13.1976 79.9819 12.9541V7.89062C79.9653 7.73014 79.8934 7.5918 79.7661 7.47559C79.5946 7.33171 79.4147 7.25423 79.2266 7.24316C79.0439 7.2321 78.9526 7.17676 78.9526 7.07715C78.9526 6.97201 78.9969 6.90837 79.0854 6.88623L80.9863 6.33838C81.0527 6.31624 81.1164 6.30518 81.1772 6.30518C81.2437 6.30518 81.2769 6.35221 81.2769 6.44629V12.0161C81.2769 12.4035 81.4484 12.7023 81.7915 12.9126C82.1346 13.1229 82.5718 13.228 83.103 13.228C83.6398 13.228 84.1213 13.0648 84.5474 12.7383C84.6802 12.6331 84.7909 12.5169 84.8794 12.3896V7.89062C84.8628 7.73014 84.7909 7.5918 84.6636 7.47559C84.492 7.33171 84.3122 7.25423 84.124 7.24316C83.9414 7.2321 83.8501 7.17676 83.8501 7.07715C83.8501 6.97201 83.8944 6.90837 83.9829 6.88623L85.8838 6.33838C85.9502 6.31624 86.0138 6.30518 86.0747 6.30518C86.1411 6.30518 86.1743 6.36051 86.1743 6.47119V12.3647C86.202 12.6082 86.2712 12.7826 86.3818 12.8877C86.4925 12.9928 86.6724 13.0454 86.9214 13.0454L87.4028 13.0122C87.436 13.0122 87.4526 13.0454 87.4526 13.1118C87.4526 13.1727 87.4111 13.2225 87.3281 13.2612L85.1201 14.1743C85.0537 14.2075 84.9956 14.2241 84.9458 14.2241C84.9015 14.2241 84.8794 14.1549 84.8794 14.0166V13.2695ZM93.5786 8.04834C93.5122 8.03727 93.4154 8.0013 93.2881 7.94043C92.8288 7.73014 92.4691 7.625 92.209 7.625C91.9489 7.625 91.675 7.78825 91.3872 8.11475C91.105 8.43571 90.9639 8.72624 90.9639 8.98633V12.7383C90.9639 13.1533 91.2046 13.43 91.686 13.5684C91.8963 13.6237 92.0928 13.6652 92.2754 13.6929C92.458 13.715 92.5742 13.7371 92.624 13.7593C92.6794 13.7814 92.707 13.8257 92.707 13.8921C92.707 13.953 92.6794 13.9889 92.624 14H88.4653C88.41 13.9889 88.3823 13.9502 88.3823 13.8838C88.3823 13.7842 88.5124 13.7178 88.7725 13.6846C89.3701 13.596 89.6689 13.2806 89.6689 12.7383V8.34717C89.6689 8.11475 89.5417 7.95426 89.2871 7.86572C89.1764 7.82699 89.0575 7.79655 88.9302 7.77441C88.8029 7.74674 88.7005 7.72184 88.623 7.69971C88.5511 7.67757 88.5041 7.6582 88.4819 7.6416C88.4653 7.61947 88.457 7.57796 88.457 7.51709C88.457 7.45068 88.4985 7.39535 88.5815 7.35107L90.6982 6.35498C90.7646 6.32178 90.8062 6.30518 90.8228 6.30518C90.9168 6.30518 90.9639 6.37158 90.9639 6.50439V7.84912C90.9639 7.91553 90.9805 7.94873 91.0137 7.94873C91.0579 7.94873 91.1714 7.81868 91.354 7.55859C91.8797 6.82259 92.3141 6.45459 92.6572 6.45459C92.8509 6.45459 93.147 6.53206 93.5454 6.68701C93.9494 6.84196 94.1514 6.97201 94.1514 7.07715C94.1514 7.20443 94.0877 7.39811 93.9604 7.6582C93.8332 7.91829 93.7059 8.04834 93.5786 8.04834ZM100.833 11.3853L100.817 9.63379C100.817 8.91992 100.756 8.41911 100.634 8.13135C100.513 7.84359 100.358 7.62777 100.169 7.48389C99.9813 7.33447 99.7267 7.25977 99.4058 7.25977C99.0903 7.25977 98.418 7.50879 97.3887 8.00684C97.2503 8.08984 97.1784 8.16732 97.1729 8.23926V12.7051C97.1729 13.264 97.4717 13.585 98.0693 13.668C98.3294 13.7067 98.4595 13.7703 98.4595 13.8589C98.4595 13.9419 98.4318 13.9889 98.3765 14H94.6743C94.619 13.9889 94.5913 13.9502 94.5913 13.8838C94.5913 13.7786 94.7214 13.7067 94.9814 13.668C95.5791 13.585 95.8779 13.264 95.8779 12.7051V7.94043C95.8779 7.70801 95.7507 7.54753 95.4961 7.45898C95.3854 7.42025 95.2664 7.38981 95.1392 7.36768C95.0119 7.34001 94.9095 7.3151 94.832 7.29297C94.7601 7.27083 94.7131 7.25146 94.6909 7.23486C94.6743 7.21273 94.666 7.17122 94.666 7.11035C94.666 7.04395 94.7075 6.98861 94.7905 6.94434L96.9072 5.94824C96.9736 5.91504 97.0151 5.89844 97.0317 5.89844C97.1258 5.89844 97.1729 5.96484 97.1729 6.09766V7.39258C97.1895 7.44792 97.2116 7.47559 97.2393 7.47559C97.2725 7.47559 97.3914 7.42578 97.5962 7.32617C98.0721 7.08822 98.5508 6.85856 99.0322 6.63721C99.5137 6.41585 99.9121 6.30518 100.228 6.30518C101.506 6.30518 102.145 7.47005 102.145 9.7998L102.07 12.2236V12.7051C102.07 13.1367 102.286 13.4189 102.718 13.5518C102.9 13.6126 103.075 13.6569 103.241 13.6846C103.412 13.7067 103.523 13.7288 103.573 13.751C103.628 13.7731 103.656 13.8174 103.656 13.8838C103.656 13.9502 103.628 13.9889 103.573 14H99.5718C99.5164 13.9889 99.4888 13.9502 99.4888 13.8838C99.4888 13.7786 99.6188 13.7067 99.8789 13.668C100.471 13.585 100.767 13.2419 100.767 12.6387C100.811 12.362 100.833 11.9442 100.833 11.3853ZM104.403 14C104.347 13.9889 104.32 13.9502 104.32 13.8838C104.32 13.7842 104.45 13.7178 104.71 13.6846C105.308 13.596 105.606 13.2806 105.606 12.7383V8.34717C105.606 8.11475 105.479 7.95426 105.225 7.86572C105.114 7.82699 104.995 7.79655 104.868 7.77441C104.74 7.74674 104.638 7.72184 104.561 7.69971C104.489 7.67757 104.442 7.6582 104.419 7.6416C104.403 7.61947 104.395 7.57796 104.395 7.51709C104.395 7.45068 104.436 7.39535 104.519 7.35107L106.636 6.35498C106.702 6.32178 106.744 6.30518 106.76 6.30518C106.854 6.30518 106.901 6.37158 106.901 6.50439V12.7383C106.901 13.2806 107.2 13.596 107.798 13.6846C108.058 13.7178 108.188 13.7759 108.188 13.8589C108.188 13.9419 108.16 13.9889 108.105 14H104.403ZM106.129 3.97266C105.903 3.97266 105.701 3.90072 105.523 3.75684C105.352 3.61296 105.266 3.41374 105.266 3.15918C105.266 2.89909 105.349 2.69434 105.515 2.54492C105.681 2.39551 105.878 2.3208 106.104 2.3208C106.337 2.3208 106.531 2.40934 106.686 2.58643C106.846 2.76351 106.926 2.95443 106.926 3.15918C106.926 3.36393 106.852 3.55208 106.702 3.72363C106.553 3.88965 106.362 3.97266 106.129 3.97266ZM111.201 7.6167C111.168 7.6167 111.151 7.6416 111.151 7.69141V12.2734C111.151 12.6055 111.223 12.8656 111.367 13.0537C111.517 13.2419 111.705 13.3359 111.932 13.3359C112.159 13.3359 112.355 13.3 112.521 13.228C112.693 13.1506 112.839 13.0675 112.961 12.979C113.088 12.8905 113.202 12.8102 113.301 12.7383C113.401 12.6608 113.489 12.6221 113.567 12.6221C113.644 12.6221 113.683 12.6414 113.683 12.6802C113.683 12.813 113.669 12.8988 113.642 12.9375C112.978 13.7952 112.336 14.2241 111.716 14.2241C111.102 14.2241 110.637 14.0304 110.321 13.6431C110.011 13.2502 109.856 12.7826 109.856 12.2402V7.6167H109.234C109.079 7.6167 108.996 7.56689 108.985 7.46729C108.979 7.36768 108.996 7.30404 109.035 7.27637C109.328 7.08822 109.732 6.75065 110.247 6.26367C110.302 6.2028 110.377 6.11149 110.471 5.98975C110.565 5.868 110.7 5.70199 110.877 5.4917C111.06 5.28141 111.198 5.17627 111.292 5.17627C111.387 5.17627 111.434 5.21501 111.434 5.29248C111.434 5.30355 111.34 5.66602 111.151 6.37988C111.151 6.47949 111.196 6.53206 111.284 6.5376H113.401C113.644 6.5376 113.766 6.8807 113.766 7.56689C113.766 7.6001 113.744 7.6167 113.7 7.6167H111.201ZM120.241 13.2695C120.213 13.1755 120.177 13.145 120.133 13.1782C120.089 13.2059 119.909 13.3 119.593 13.4604C118.558 13.9751 117.695 14.2324 117.003 14.2324C116.312 14.2324 115.814 14.0111 115.509 13.5684C115.399 13.4023 115.343 13.1976 115.343 12.9541V7.89062C115.327 7.73014 115.255 7.5918 115.127 7.47559C114.956 7.33171 114.776 7.25423 114.588 7.24316C114.405 7.2321 114.314 7.17676 114.314 7.07715C114.314 6.97201 114.358 6.90837 114.447 6.88623L116.348 6.33838C116.414 6.31624 116.478 6.30518 116.539 6.30518C116.605 6.30518 116.638 6.35221 116.638 6.44629V12.0161C116.638 12.4035 116.81 12.7023 117.153 12.9126C117.496 13.1229 117.933 13.228 118.464 13.228C119.001 13.228 119.483 13.0648 119.909 12.7383C120.042 12.6331 120.152 12.5169 120.241 12.3896V7.89062C120.224 7.73014 120.152 7.5918 120.025 7.47559C119.853 7.33171 119.674 7.25423 119.485 7.24316C119.303 7.2321 119.211 7.17676 119.211 7.07715C119.211 6.97201 119.256 6.90837 119.344 6.88623L121.245 6.33838C121.312 6.31624 121.375 6.30518 121.436 6.30518C121.502 6.30518 121.536 6.36051 121.536 6.47119V12.3647C121.563 12.6082 121.632 12.7826 121.743 12.8877C121.854 12.9928 122.034 13.0454 122.283 13.0454L122.764 13.0122C122.797 13.0122 122.814 13.0454 122.814 13.1118C122.814 13.1727 122.772 13.2225 122.689 13.2612L120.481 14.1743C120.415 14.2075 120.357 14.2241 120.307 14.2241C120.263 14.2241 120.241 14.1549 120.241 14.0166V13.2695ZM128.94 8.04834C128.874 8.03727 128.777 8.0013 128.649 7.94043C128.19 7.73014 127.83 7.625 127.57 7.625C127.31 7.625 127.036 7.78825 126.749 8.11475C126.466 8.43571 126.325 8.72624 126.325 8.98633V12.7383C126.325 13.1533 126.566 13.43 127.047 13.5684C127.258 13.6237 127.454 13.6652 127.637 13.6929C127.819 13.715 127.936 13.7371 127.985 13.7593C128.041 13.7814 128.068 13.8257 128.068 13.8921C128.068 13.953 128.041 13.9889 127.985 14H123.827C123.771 13.9889 123.744 13.9502 123.744 13.8838C123.744 13.7842 123.874 13.7178 124.134 13.6846C124.731 13.596 125.03 13.2806 125.03 12.7383V8.34717C125.03 8.11475 124.903 7.95426 124.648 7.86572C124.538 7.82699 124.419 7.79655 124.292 7.77441C124.164 7.74674 124.062 7.72184 123.984 7.69971C123.912 7.67757 123.865 7.6582 123.843 7.6416C123.827 7.61947 123.818 7.57796 123.818 7.51709C123.818 7.45068 123.86 7.39535 123.943 7.35107L126.06 6.35498C126.126 6.32178 126.167 6.30518 126.184 6.30518C126.278 6.30518 126.325 6.37158 126.325 6.50439V7.84912C126.325 7.91553 126.342 7.94873 126.375 7.94873C126.419 7.94873 126.533 7.81868 126.715 7.55859C127.241 6.82259 127.675 6.45459 128.019 6.45459C128.212 6.45459 128.508 6.53206 128.907 6.68701C129.311 6.84196 129.513 6.97201 129.513 7.07715C129.513 7.20443 129.449 7.39811 129.322 7.6582C129.194 7.91829 129.067 8.04834 128.94 8.04834ZM131.438 9.62549C131.344 9.62549 131.297 9.82747 131.297 10.2314C131.297 11.0892 131.552 11.8086 132.061 12.3896C132.57 12.9707 133.201 13.2612 133.954 13.2612C134.712 13.2612 135.439 12.9347 136.137 12.2817C136.148 12.2707 136.162 12.2651 136.178 12.2651H136.22C136.253 12.2651 136.283 12.2928 136.311 12.3481C136.344 12.3979 136.375 12.4312 136.402 12.4478C135.76 13.228 135.005 13.7676 134.136 14.0664C133.837 14.1715 133.5 14.2241 133.124 14.2241C132.747 14.2241 132.365 14.1217 131.978 13.917C131.591 13.7067 131.259 13.4328 130.982 13.0952C130.395 12.3924 130.102 11.5181 130.102 10.4722C130.102 9.42074 130.42 8.46338 131.057 7.6001C131.699 6.73682 132.578 6.30518 133.696 6.30518C134.499 6.30518 135.154 6.66488 135.664 7.38428C136.173 8.09814 136.427 8.72624 136.427 9.26855C136.427 9.50651 136.369 9.62549 136.253 9.62549H131.438ZM131.53 8.82861C131.53 8.93376 131.58 8.98633 131.679 8.98633H134.809C134.952 8.98633 135.024 8.90055 135.024 8.729C135.024 8.33057 134.845 7.92383 134.485 7.50879C134.131 7.08822 133.741 6.87793 133.314 6.87793C132.899 6.87793 132.52 7.06608 132.177 7.44238C131.84 7.81868 131.624 8.24756 131.53 8.729V8.82861Z" fill="black"/>
</svg>
